<svg width="150" height="43" viewBox="0 0 150 43" fill="none" xmlns="http://www.w3.org/2000/svg">
<path d="M58.7403 2.91296V20.2018H55.2021V2.91296H58.7403Z" fill="white"/>
<path d="M66.0202 20.4212C65.029 20.4212 64.1353 20.1653 63.335 19.6494C62.5348 19.1335 61.9011 18.3819 61.438 17.3867C60.9749 16.3914 60.7393 15.1768 60.7393 13.7347C60.7393 12.2927 60.9789 11.0252 61.4583 10.0341C61.9376 9.04287 62.5754 8.29948 63.3716 7.80389C64.1678 7.30829 65.0452 7.0605 66.0039 7.0605C66.7392 7.0605 67.3485 7.18643 67.836 7.43422C68.3234 7.68202 68.7175 7.98669 69.0181 8.35229C69.3187 8.71383 69.5462 9.06724 69.6924 9.40847H69.8102V2.91296H73.2915V20.2018H69.8671V18.126H69.6924C69.5381 18.4754 69.3065 18.8247 69.0018 19.1781C68.6972 19.5275 68.2991 19.824 67.8116 20.0637C67.3241 20.3034 66.7229 20.4252 66.012 20.4252L66.0202 20.4212ZM67.0966 17.6264C67.6857 17.6264 68.1853 17.4639 68.6037 17.1389C69.0221 16.8139 69.339 16.3589 69.5543 15.774C69.7696 15.189 69.8793 14.5066 69.8793 13.7266C69.8793 12.9467 69.7737 12.2561 69.5584 11.6793C69.3471 11.1024 69.0303 10.6556 68.6119 10.3347C68.1935 10.0137 67.6857 9.85125 67.0926 9.85125C66.4995 9.85125 65.9674 10.0178 65.553 10.3509C65.1387 10.684 64.8299 11.139 64.6187 11.7199C64.4115 12.3008 64.3059 12.967 64.3059 13.7266C64.3059 14.4863 64.4115 15.1565 64.6268 15.7456C64.8381 16.3305 65.1508 16.7936 65.5652 17.1267C65.9795 17.4598 66.4873 17.6264 67.0926 17.6264H67.0966Z" fill="white"/>
<path d="M81.5292 20.4577C80.2049 20.4577 79.0634 20.1855 78.1047 19.6453C77.146 19.1009 76.4108 18.3332 75.8949 17.3339C75.379 16.3386 75.123 15.1524 75.123 13.7835C75.123 12.4145 75.379 11.273 75.8908 10.2696C76.4026 9.26221 77.1257 8.4782 78.06 7.91355C78.9943 7.3489 80.0952 7.06454 81.3545 7.06454C82.2035 7.06454 82.9997 7.20266 83.7309 7.47077C84.4662 7.74294 85.1121 8.14916 85.6686 8.69756C86.2251 9.2419 86.6598 9.92435 86.9726 10.7449C87.2854 11.5655 87.4438 12.5323 87.4438 13.6454V14.6203H76.5489V12.4389H85.7377L84.1128 13.0198C84.1128 12.3454 84.0112 11.7605 83.804 11.2608C83.6009 10.7612 83.2922 10.3753 82.886 10.1031C82.4797 9.82686 81.9801 9.68874 81.3829 9.68874C80.7858 9.68874 80.2658 9.82686 79.8434 10.1072C79.4209 10.3874 79.104 10.7612 78.8847 11.2365C78.6694 11.7117 78.5597 12.2561 78.5597 12.8654V14.4091C78.5597 15.1606 78.6856 15.7902 78.9375 16.3021C79.1893 16.8139 79.5427 17.1957 79.9937 17.4517C80.4446 17.7076 80.9727 17.8335 81.5779 17.8335C81.9882 17.8335 82.3579 17.7766 82.691 17.6588C83.0241 17.541 83.3084 17.3704 83.544 17.1429C83.7797 16.9155 83.9584 16.6352 84.0843 16.3021L87.2407 16.8951C87.0335 17.606 86.6679 18.2316 86.152 18.7678C85.632 19.304 84.9861 19.7225 84.2062 20.0149C83.4303 20.3074 82.5326 20.4577 81.5211 20.4577H81.5292Z" fill="white"/>
<path d="M92.8348 20.4577C92.0142 20.4577 91.2789 20.3115 90.6249 20.0231C89.9709 19.7306 89.455 19.3 89.0812 18.7231C88.7075 18.1463 88.5166 17.4273 88.5166 16.5702C88.5166 15.8511 88.6507 15.2459 88.9188 14.7584C89.1869 14.2709 89.5484 13.881 90.0074 13.5885C90.4665 13.296 90.9905 13.0726 91.5755 12.9182C92.1604 12.7638 92.7738 12.6542 93.4157 12.5932C94.1672 12.5161 94.7724 12.4429 95.2315 12.3779C95.6905 12.3129 96.0277 12.2114 96.2389 12.0651C96.4501 11.923 96.5598 11.7117 96.5598 11.4314V11.3746C96.5598 11.0049 96.4826 10.6921 96.3283 10.4362C96.1739 10.1803 95.9424 9.98529 95.6377 9.85123C95.333 9.71312 94.9634 9.64812 94.5287 9.64812C94.094 9.64812 93.6878 9.71718 93.3588 9.85123C93.0257 9.98529 92.7535 10.164 92.5463 10.3915C92.3392 10.6149 92.1848 10.8668 92.0832 11.143L88.8903 10.6231C89.1137 9.86342 89.4875 9.22158 90.0034 8.69755C90.5193 8.17353 91.1652 7.77137 91.9329 7.49107C92.7007 7.21078 93.57 7.07266 94.5368 7.07266C95.2315 7.07266 95.9099 7.15797 96.5679 7.32452C97.226 7.49108 97.815 7.74699 98.3391 8.09635C98.8631 8.4457 99.2734 8.90067 99.578 9.46126C99.8827 10.0218 100.037 10.6921 100.037 11.4761V20.214H96.7426V18.4144H96.6248C96.4176 18.8166 96.1373 19.17 95.788 19.4747C95.4386 19.7793 95.0202 20.0231 94.5287 20.1977C94.0372 20.3765 93.4725 20.4658 92.8307 20.4658L92.8348 20.4577ZM93.8178 18.0082C94.3662 18.0082 94.8496 17.8985 95.264 17.6832C95.6783 17.4679 95.9992 17.1714 96.2308 16.8017C96.4623 16.432 96.5801 16.0177 96.5801 15.5627V14.1572C96.4786 14.2344 96.3242 14.3034 96.117 14.3644C95.9099 14.4253 95.6783 14.4781 95.4224 14.5269C95.1665 14.5715 94.9146 14.6162 94.6668 14.6528C94.419 14.6893 94.1997 14.7218 94.0047 14.7462C93.5781 14.8071 93.2044 14.9087 92.8794 15.0468C92.5545 15.1849 92.3026 15.3677 92.1239 15.5993C91.9451 15.8268 91.8558 16.1193 91.8558 16.4767C91.8558 16.8098 91.9411 17.0901 92.1117 17.3176C92.2823 17.5451 92.5138 17.7157 92.8063 17.8335C93.0988 17.9473 93.436 18.0082 93.8178 18.0082Z" fill="white"/>
<path d="M105.866 2.91296V20.2018H102.385V2.91296H105.866Z" fill="white"/>
<path d="M55.1984 40.0052V22.7163H59.1428L64.6065 31.4664C64.8868 31.9132 65.1671 32.4007 65.4555 32.9288C65.7399 33.4528 66.0324 34.0378 66.333 34.6796C66.6295 35.3214 66.9261 36.0445 67.2185 36.8488H66.857C66.8042 36.207 66.7554 35.5246 66.7108 34.7933C66.6701 34.0662 66.6295 33.3716 66.6011 32.7054C66.5726 32.0392 66.5564 31.4745 66.5564 31.0114V22.7163H70.1758V40.0052H66.2192L61.2511 32.0676C60.8896 31.4704 60.5524 30.8936 60.2396 30.333C59.9309 29.7724 59.6059 29.1509 59.2728 28.4766C58.9356 27.7982 58.5375 26.9898 58.0704 26.0433H58.5254C58.57 26.8801 58.6188 27.6804 58.6635 28.4441C58.7082 29.2118 58.7488 29.9065 58.7732 30.528C58.8016 31.1495 58.8138 31.6573 58.8138 32.0554V40.0011H55.1943L55.1984 40.0052Z" fill="white"/>
<path d="M78.5595 40.257C77.2352 40.257 76.0937 39.9849 75.135 39.4446C74.1763 38.9003 73.441 38.1325 72.9251 37.1332C72.4092 36.1379 72.1533 34.9518 72.1533 33.5828C72.1533 32.2138 72.4092 31.0723 72.9211 30.069C73.4329 29.0615 74.156 28.2775 75.0903 27.7129C76.0246 27.1482 77.1255 26.8639 78.3848 26.8639C79.2338 26.8639 80.03 27.002 80.7612 27.2701C81.4965 27.5423 82.1423 27.9485 82.6989 28.4969C83.2554 29.0412 83.69 29.7237 84.0028 30.5442C84.3156 31.3648 84.4741 32.3316 84.4741 33.4447V34.4196H73.5792V32.2382H82.7679L81.143 32.8191C81.143 32.1448 81.0415 31.5598 80.8343 31.0601C80.6312 30.5605 80.3225 30.1746 79.9162 29.9024C79.51 29.6262 79.0104 29.4881 78.4132 29.4881C77.8161 29.4881 77.2961 29.6262 76.8736 29.9065C76.4512 30.1868 76.1343 30.5605 75.9149 31.0358C75.6996 31.5111 75.59 32.0554 75.59 32.6647V34.2084C75.59 34.9599 75.7159 35.5895 75.9677 36.1014C76.2196 36.6132 76.573 36.9951 77.0239 37.251C77.4748 37.5069 78.0029 37.6328 78.6082 37.6328C79.0185 37.6328 79.3882 37.576 79.7213 37.4582C80.0544 37.3404 80.3387 37.1697 80.5743 36.9423C80.8099 36.7148 80.9887 36.4345 81.1146 36.1014L84.2709 36.6945C84.0638 37.4053 83.6982 38.0309 83.1823 38.5671C82.6623 39.1034 82.0164 39.5218 81.2365 39.8143C80.4606 40.1067 79.5628 40.257 78.5513 40.257H78.5595Z" fill="white"/>
<path d="M92.6353 27.0304V29.6871H84.9414V27.0304H92.6353ZM86.7329 23.9472H90.2142V36.2111C90.2142 36.6214 90.3036 36.922 90.4864 37.121C90.6692 37.316 90.9738 37.4135 91.3963 37.4135C91.5263 37.4135 91.7131 37.3972 91.9528 37.3607C92.1925 37.3241 92.3753 37.2916 92.4972 37.2632L92.9968 39.8752C92.6109 39.989 92.225 40.0702 91.8431 40.1189C91.4613 40.1677 91.0957 40.188 90.7463 40.188C89.4464 40.188 88.4512 39.8711 87.7647 39.2374C87.0741 38.6037 86.7329 37.6938 86.7329 36.5117V23.9472Z" fill="white"/>
<path d="M97.3725 40.0053L93.5459 27.0345H97.2019L98.3271 31.828C98.5221 32.6851 98.7293 33.6194 98.9527 34.6309C99.1761 35.6424 99.3833 36.7555 99.5661 37.9782H99.1721C99.3752 36.788 99.5946 35.683 99.8342 34.6634C100.074 33.6479 100.297 32.7014 100.509 31.828L101.691 27.0345H104.892L106.053 31.828C106.248 32.7014 106.464 33.6438 106.703 34.6553C106.943 35.6627 107.167 36.7717 107.378 37.9782H106.984C107.171 36.7798 107.37 35.6749 107.581 34.6634C107.792 33.656 107.999 32.7095 108.202 31.828L109.328 27.0345H113.028L109.177 40.0053H105.639L104.201 35.0046C104.063 34.5009 103.921 33.9485 103.783 33.3391C103.645 32.7298 103.506 32.1123 103.376 31.4827C103.242 30.853 103.108 30.264 102.97 29.7116H103.584C103.45 30.26 103.32 30.849 103.182 31.4827C103.047 32.1123 102.909 32.7339 102.771 33.3432C102.633 33.9566 102.491 34.5091 102.353 35.0006L100.915 40.0012H97.3766L97.3725 40.0053Z" fill="white"/>
<path d="M119.543 40.257C118.244 40.257 117.118 39.9767 116.168 39.4162C115.217 38.8556 114.482 38.0756 113.97 37.0722C113.454 36.0689 113.198 34.9071 113.198 33.5747C113.198 32.2422 113.454 31.0561 113.97 30.0527C114.486 29.0493 115.217 28.2694 116.168 27.7088C117.118 27.1482 118.244 26.8679 119.543 26.8679C120.843 26.8679 121.977 27.1482 122.927 27.7088C123.874 28.2694 124.605 29.0493 125.121 30.0527C125.637 31.0561 125.893 32.226 125.893 33.5747C125.893 34.9233 125.637 36.0689 125.121 37.0722C124.605 38.0756 123.874 38.8556 122.927 39.4162C121.981 39.9767 120.851 40.257 119.543 40.257ZM119.543 37.5191C120.161 37.5191 120.681 37.3485 121.099 37.0032C121.518 36.6579 121.83 36.1867 122.042 35.5895C122.249 34.9883 122.355 34.314 122.355 33.5665C122.355 32.8191 122.249 32.1204 122.042 31.5232C121.835 30.9261 121.518 30.4589 121.099 30.1177C120.681 29.7765 120.165 29.6059 119.543 29.6059C118.922 29.6059 118.41 29.7765 117.996 30.1177C117.581 30.4589 117.273 30.9261 117.061 31.5232C116.854 32.1204 116.749 32.7988 116.749 33.5665C116.749 34.3343 116.854 34.9924 117.061 35.5895C117.269 36.1907 117.581 36.662 117.996 37.0032C118.41 37.3444 118.926 37.5191 119.543 37.5191Z" fill="white"/>
<path d="M127.721 40.0052V27.0345H131.084V29.2971H131.223C131.462 28.4928 131.864 27.8875 132.421 27.4732C132.981 27.0629 133.627 26.8598 134.354 26.8598C134.533 26.8598 134.724 26.8679 134.935 26.8882C135.143 26.9085 135.325 26.937 135.48 26.9735V30.0811C135.325 30.0283 135.102 29.9837 134.805 29.9552C134.513 29.9268 134.233 29.9105 133.969 29.9105C133.44 29.9105 132.965 30.0243 132.543 30.2518C132.116 30.4792 131.787 30.7961 131.552 31.2023C131.316 31.6086 131.198 32.0798 131.198 32.6241V40.0052H127.717H127.721Z" fill="white"/>
<path d="M136.82 40.0052V22.7163H140.302V40.0052H136.82ZM139.977 36.2111V32.0229H140.501L144.746 27.0345H148.771L143.17 33.5422H142.345L139.977 36.2111ZM144.916 40.0052L141.017 34.3181L143.348 31.8482L149.011 40.0052H144.916Z" fill="white"/>
<mask id="mask0_16_258" style="mask-type:luminance" maskUnits="userSpaceOnUse" x="0" y="0" width="43" height="43">
<path d="M36.065 0H6.36561C2.84998 0 0 2.84998 0 6.36561V36.065C0 39.5807 2.84998 42.4307 6.36561 42.4307H36.065C39.5807 42.4307 42.4307 39.5807 42.4307 36.065V6.36561C42.4307 2.84998 39.5807 0 36.065 0Z" fill="white"/>
</mask>
<g mask="url(#mask0_16_258)">
<path d="M36.065 45.5302H6.36554C1.14549 45.5302 -3.09961 41.2851 -3.09961 36.0651V6.36563C-3.09961 1.14558 1.14549 -3.09952 6.36554 -3.09952H36.065C41.285 -3.09952 45.5301 1.14558 45.5301 6.36563V36.061C45.5301 41.281 41.285 45.5261 36.065 45.5261V45.5302ZM5.874 2.49832C4.01347 2.49832 2.49823 4.01356 2.49823 5.87409V36.5607C2.49823 38.4212 4.01347 39.9364 5.874 39.9364H36.5606C38.4211 39.9364 39.9363 38.4212 39.9363 36.5607V5.87409C39.9363 4.01356 38.4211 2.49832 36.5606 2.49832H5.874Z" fill="white"/>
<path fill-rule="evenodd" clip-rule="evenodd" d="M22.9435 9.8186C23.951 9.76579 25.3606 10.3223 26.5793 11.342C27.772 12.3389 28.9677 13.3322 30.1633 14.3254L30.1634 14.3254C33.8298 17.3711 37.4956 20.4163 41.0735 23.5654C45.0018 27.0265 45.3511 31.0644 42.1135 35.1876C40.3339 37.4529 38.3816 39.5822 36.431 41.7098C35.9504 42.2339 35.47 42.7579 34.9923 43.2838C33.9808 44.3928 32.9286 45.5018 31.7343 46.3996C29.2523 48.2723 26.7905 48.3413 24.2435 46.562C18.7675 42.7394 13.6002 38.5228 8.76205 33.9202C7.97397 33.1687 7.29963 32.2668 6.70247 31.3488C5.3741 29.2973 5.3416 27.1808 6.54404 25.0238C8.64425 21.2499 11.3091 17.8944 14.1933 14.7015C15.0464 13.755 15.9076 12.8044 16.8582 11.9594C18.4019 10.5864 20.2421 9.86735 22.9435 9.8186ZM28.1391 24.7272C26.7498 24.7313 25.8642 23.8457 25.8683 22.4442C25.8723 20.5268 27.8141 18.6013 29.7559 18.5972C31.1208 18.5972 32.112 19.629 32.043 20.9899C31.9455 22.9154 30.0606 24.7191 28.1391 24.7272ZM14.5181 25.166C14.6642 23.8878 13.8902 22.9419 12.6901 22.9398C10.8946 22.9317 8.9081 25.1903 9.14371 26.9696C9.31839 28.2858 10.3015 28.9398 11.573 28.5905C13.0882 28.1721 14.3394 26.7178 14.5181 25.166ZM25.3279 42.7963C24.1539 42.7963 23.4592 41.992 23.6217 40.8139C23.837 39.2052 25.4823 37.5641 27.0869 37.3488C28.3665 37.1782 29.1993 37.9947 29.0733 39.2946C28.8987 41.0658 27.0503 42.7963 25.3279 42.7923V42.7963ZM36.6536 26.214C35.1424 26.5999 33.7003 28.4523 33.6922 30.0163V30.0123C33.6881 31.4178 34.7362 32.1612 36.1011 31.7225C37.5432 31.2553 38.835 29.606 38.9407 28.0908C39.0381 26.6852 38.0348 25.8606 36.6536 26.214ZM39.026 35.4679C38.1811 35.4841 37.6652 35.0414 37.5433 34.2086C37.3077 32.5674 39.1438 30.2885 40.7931 30.1707C41.6868 30.1057 42.2677 30.5403 42.4059 31.3812C42.6821 33.0711 40.7241 35.4395 39.026 35.4679ZM29.5811 45.8877C31.2182 45.8146 33.099 43.8606 33.099 42.2397C33.099 41.1145 32.2825 40.5498 31.0516 40.8261C29.6339 41.1429 28.1999 42.7232 28.009 44.1815C27.8749 45.2012 28.5493 45.9324 29.5811 45.8877Z" fill="white"/>
<path d="M34.2087 10.7651C34.6799 10.7651 35.0658 10.3832 35.0658 9.90796C35.0658 9.43267 34.684 9.05081 34.2087 9.05081C33.7334 9.05081 33.3516 9.43267 33.3516 9.90796C33.3516 10.3832 33.7334 10.7651 34.2087 10.7651Z" fill="white"/>
<path d="M32.9538 7.64526L32.5678 7.71839C31.7148 7.88494 31.0526 8.53897 30.9023 9.37174L30.6829 10.5945C30.6423 10.8179 30.3092 10.8139 30.2767 10.5904L30.0939 9.41236C29.9599 8.55928 29.2936 7.88088 28.4202 7.71432L28.0709 7.64526C27.8475 7.60058 27.8475 7.29591 28.0709 7.25122L28.4202 7.18216C29.2896 7.01561 29.9599 6.33314 30.0939 5.48412L30.2767 4.30606C30.3133 4.08263 30.6423 4.07857 30.6829 4.302L30.9023 5.52475C31.0526 6.35752 31.7148 7.01561 32.5678 7.1781L32.9538 7.25122C33.1731 7.29591 33.1731 7.60058 32.9538 7.64526Z" fill="white"/>
</g>
</svg>
